<?xml version="1.0" encoding="utf-8"?>
<!-- Generator: Adobe Illustrator 24.0.1, SVG Export Plug-In . SVG Version: 6.00 Build 0)  -->
<svg version="1.1" id="Layer_1" xmlns="http://www.w3.org/2000/svg" xmlns:xlink="http://www.w3.org/1999/xlink" x="0px" y="0px"
	 viewBox="0 0 512 512" style="enable-background:new 0 0 512 512;" xml:space="preserve">
<style type="text/css">
	.st0{fill:#3C80E3;}
</style>
<g>
	<g>
		<path class="st0" d="M485.1,201.8l-63-138c-6.2-13.6-13.3-20.9-27-27.8l-69.6-35c-2.2-1.1-4.7-1.4-7.1-0.7
			c-48.4,13-76.4,13-124.8,0c-2.4-0.6-4.9-0.4-7.1,0.7l-69.6,35c-13.7,6.9-20.8,14.2-27,27.8l-63,138c-2.1,4.6-0.5,10,3.8,12.6
			l75.3,47.1V502c0,5.5,4.5,10,10,10h280c5.5,0,10-4.5,10-10V261.5l75.3-47.1C485.6,211.8,487.2,206.4,485.1,201.8L485.1,201.8z
			 M309.2,23.3C303,44.7,281.5,60.6,256,60.6s-47-15.9-53.2-37.3C241.8,32.3,270.2,32.3,309.2,23.3z M406,238v-62
			c0-5.5-4.5-10-10-10s-10,4.5-10,10v316H126V176c0-5.5-4.5-10-10-10s-10,4.5-10,10v62l-57.3-35.8l59.4-130
			c4.3-9.5,8.1-13.4,17.8-18.2l20.4-10.2c10.2,28.5,32.5,52.3,61.7,65c1.3,0.6,2.6,0.8,4,0.8c3.9,0,7.5-2.3,9.2-6
			c2.2-5.1-0.1-11-5.2-13.2c-24.8-10.8-43.7-31.3-51.6-55.7l18.4-9.3c7.3,31.5,37.4,55.2,73.3,55.2s66-23.7,73.3-55.2l18.4,9.3
			c-7.9,24.4-26.7,44.9-51.6,55.7c-5.1,2.2-7.4,8.1-5.2,13.2c1.6,3.8,5.3,6,9.2,6c1.3,0,2.7-0.3,4-0.8c29.1-12.6,51.5-36.4,61.7-65
			l20.4,10.2c9.6,4.8,13.5,8.8,17.8,18.2l59.4,130L406,238z"/>
		<path class="st0" d="M256,98.6L256,98.6c-5.5,0-10,4.5-10,10s4.5,10,10,10s10-4.5,10-10S261.5,98.6,256,98.6z"/>
	</g>
</g>
</svg>
