<?xml version="1.0" encoding="utf-8"?>
<!-- Generator: Adobe Illustrator 24.0.1, SVG Export Plug-In . SVG Version: 6.00 Build 0)  -->
<svg version="1.1" id="Capa_1" xmlns="http://www.w3.org/2000/svg" xmlns:xlink="http://www.w3.org/1999/xlink" x="0px" y="0px"
	 viewBox="0 0 512 512" style="enable-background:new 0 0 512 512;" xml:space="preserve">
<style type="text/css">
	.st0{fill:#3C80E3;}
</style>
<g>
	<path class="st0" d="M488.7,422c-1.9-1.7-3.9-3.5-6.1-5.4l-84-74.6c-15.1-13.4-24.7-12.7-39.4-11.7c-1,0.1-2.1,0.2-3.3,0.2
		c-75.9,5-108-5.6-148.8-78.4c-9.7-17.4-17.7-36.5-26.2-56.7C157.7,139.9,133.7,82.5,70.9,52.8c-9.9-5.3-18.4-6.4-25.3-3.2
		c-7.4,3.5-9.9,10.5-10.6,12.9c-3,7.9-7.3,17-11.9,26.7C12.9,110.7,1.3,135.1,0.3,155c-0.6,10.4-0.5,20.9,2.4,30.5
		c13.4,77.9,22.1,182.4,22.1,266.3c0,6.8,5.5,12.3,12.3,12.3h33.3c6.8,0,12.3-5.5,12.3-12.3v-83.6c0-25.6,7.2-49.3,15.5-76.8
		c0-0.1,0.1-0.2,0.1-0.4c17.8,20.9,36.4,45.8,55.4,76.7c10.2,16.6,32.8,59.5,33.7,61.3c7.9,15.8,12.6,25.3,24.2,30.3
		c10.5,4.6,25.2,4.8,54.8,4.8h66.9c4.1,0,7.5-3.4,7.5-7.5c0-4.1-3.4-7.5-7.5-7.5h-66.9c-26.8,0-41.1-0.2-48.8-3.5
		c-6.3-2.7-9.2-8.1-16.8-23.3c-0.9-1.8-21.7-41.4-31-56.9C125.4,291.8,82.1,250,49,218c-9.2-8.9-17.8-17.2-25.5-25.3
		c-8-8.4-9.1-20.8-8.2-36.9c0.9-16.9,11.8-39.8,21.4-60.1c2.3-4.9,4.6-9.6,6.6-14.2l52.4,89.4c1.4,2.4,3.9,3.7,6.5,3.7
		c1.3,0,2.6-0.3,3.8-1c3.6-2.1,4.8-6.7,2.7-10.3l-58-99c0.3-0.4,0.8-0.8,1.3-1.1c1.1-0.5,4.5-1.3,12,2.8c0.1,0.1,0.2,0.1,0.4,0.2
		c57.7,27.2,80.7,82,102.9,134.9c8.7,20.6,16.8,40.1,27,58.2c22.6,40.3,43,62.8,68.3,75c23.2,11.2,50,13.2,82.3,11.7
		c-33.4,15.6-57.8,22.6-79.4,18.4c-26.9-5.3-52-28.9-86.6-81.5l-52.7-89.9c-2.1-3.6-6.7-4.8-10.3-2.7c-3.6,2.1-4.8,6.7-2.7,10.3
		l52.8,90.1c0.1,0.1,0.1,0.2,0.2,0.3c37.1,56.4,65,82,96.3,88.1c5.1,1,10.3,1.5,15.7,1.5c27.1,0,57.7-12.7,100.3-34.6
		c3.1,1.2,6.2,3.3,10.2,6.9l84,74.6c2.1,1.9,4.2,3.7,6.1,5.4c6.1,5.4,12.4,10.9,15.8,14.6c-8.3,1.3-25.8,1.3-33.2,1.3h-92.5
		c-4.1,0-7.5,3.4-7.5,7.5c0,4.1,3.4,7.5,7.5,7.5h92.5c35.6,0,46.5-1.3,49.9-10.2C514.6,444.9,506.5,437.7,488.7,422L488.7,422z
		 M67.7,449.1H39.7c0-8.3-0.1-16.8-0.3-25.4h28.2L67.7,449.1L67.7,449.1z M38.6,228.7c14.9,14.4,31,30,48.1,48.9
		c-0.9,3.2-1.9,6.3-2.8,9.3c-8.3,27.4-16.1,53.3-16.1,81.1v40.6H39.1c-1.8-65.4-7.6-135.1-16.8-195.8
		C27.5,218,32.9,223.3,38.6,228.7z"/>
</g>
</svg>
