<?xml version="1.0" encoding="utf-8"?>
<!-- Generator: Adobe Illustrator 24.0.1, SVG Export Plug-In . SVG Version: 6.00 Build 0)  -->
<svg version="1.1" id="Layer_1" xmlns="http://www.w3.org/2000/svg" xmlns:xlink="http://www.w3.org/1999/xlink" x="0px" y="0px"
	 viewBox="0 0 18 20" style="enable-background:new 0 0 18 20;" xml:space="preserve">
<style type="text/css">
	.st0{fill-rule:evenodd;clip-rule:evenodd;fill:#3C80E3;}
</style>
<path class="st0" d="M9,2C5.7,2,3,4.7,3,8v5.3c0,0.1,0,0.2-0.1,0.3l-0.4,1h12.9l-0.4-1c0-0.1-0.1-0.2-0.1-0.3V8C15,4.7,12.3,2,9,2z
	 M1,8c0-4.4,3.6-8,8-8s8,3.6,8,8v5.1l0.8,2.2c0.1,0.3,0.1,0.6-0.1,0.9c-0.2,0.3-0.5,0.4-0.8,0.4H1.1c-0.3,0-0.6-0.2-0.8-0.4
	c-0.2-0.3-0.2-0.6-0.1-0.9L1,13.1V8z"/>
<path class="st0" d="M5.6,14.6c0.6,0,1,0.4,1,1C6.6,16.9,7.7,18,9,18c1.3,0,2.4-1.1,2.4-2.4c0-0.6,0.4-1,1-1s1,0.4,1,1
	c0,2.4-2,4.4-4.4,4.4c-2.4,0-4.4-2-4.4-4.4C4.6,15.1,5.1,14.6,5.6,14.6z"/>
</svg>
