<?xml version="1.0" encoding="utf-8"?>
<!-- Generator: Adobe Illustrator 24.0.1, SVG Export Plug-In . SVG Version: 6.00 Build 0)  -->
<svg version="1.1" id="Capa_1" xmlns="http://www.w3.org/2000/svg" xmlns:xlink="http://www.w3.org/1999/xlink" x="0px" y="0px"
	 viewBox="0 0 480 480" style="enable-background:new 0 0 480 480;" xml:space="preserve">
<style type="text/css">
	.st0{fill:#3C80E3;}
</style>
<g>
	<g>
		<path class="st0" d="M352,0H128c-22.1,0-40,17.9-40,40v400c0,22.1,17.9,40,40,40h224c22.1,0,40-17.9,40-40V40
			C392,17.9,374.1,0,352,0z M376,440c0,13.3-10.7,24-24,24H128c-13.3,0-24-10.7-24-24v-8h272V440z M376,416H104V64h272V416z M376,48
			H104v-8c0-13.3,10.7-24,24-24h224c13.3,0,24,10.7,24,24V48z"/>
	</g>
</g>
<g>
	<g>
		<path class="st0" d="M224,24h-16c-4.4,0-8,3.6-8,8s3.6,8,8,8h16c4.4,0,8-3.6,8-8S228.4,24,224,24z"/>
	</g>
</g>
<g>
	<g>
		<path class="st0" d="M280,24h-32c-4.4,0-8,3.6-8,8s3.6,8,8,8h32c4.4,0,8-3.6,8-8S284.4,24,280,24z"/>
	</g>
</g>
<g>
	<g>
		<path class="st0" d="M264,440h-48c-4.4,0-8,3.6-8,8s3.6,8,8,8h48c4.4,0,8-3.6,8-8S268.4,440,264,440z"/>
	</g>
</g>
</svg>
