<?xml version="1.0" encoding="utf-8"?>
<!-- Generator: Adobe Illustrator 24.0.1, SVG Export Plug-In . SVG Version: 6.00 Build 0)  -->
<svg version="1.1" id="Layer_1" xmlns="http://www.w3.org/2000/svg" xmlns:xlink="http://www.w3.org/1999/xlink" x="0px" y="0px"
	 viewBox="0 0 20 20" style="enable-background:new 0 0 20 20;" xml:space="preserve">
<style type="text/css">
	.st0{fill-rule:evenodd;clip-rule:evenodd;fill:#3C80E3;}
</style>
<path class="st0" d="M10,2C8.4,2,7.1,3.3,7.1,4.9S8.4,7.8,10,7.8c1.6,0,2.9-1.3,2.9-2.9S11.6,2,10,2z M5.1,4.9C5.1,2.2,7.3,0,10,0
	c2.7,0,4.9,2.2,4.9,4.9S12.7,9.8,10,9.8C7.3,9.8,5.1,7.6,5.1,4.9z"/>
<path class="st0" d="M7.5,13.4c-3,0-5.5,2.5-5.5,5.5V19c0,0.6-0.4,1-1,1c-0.6,0-1-0.4-1-1v-0.1c0-4.2,3.4-7.5,7.5-7.5h5
	c4.2,0,7.5,3.4,7.5,7.5V19c0,0.6-0.4,1-1,1s-1-0.4-1-1v-0.1c0-3-2.5-5.5-5.5-5.5H7.5z"/>
</svg>
