<?xml version="1.0" encoding="utf-8"?>
<!-- Generator: Adobe Illustrator 24.0.1, SVG Export Plug-In . SVG Version: 6.00 Build 0)  -->
<svg version="1.1" id="Capa_1" xmlns="http://www.w3.org/2000/svg" xmlns:xlink="http://www.w3.org/1999/xlink" x="0px" y="0px"
	 viewBox="0 0 512 512" style="enable-background:new 0 0 512 512;" xml:space="preserve">
<style type="text/css">
	.st0{fill:#3C80E3;}
</style>
<g>
	<path class="st0" d="M96.8,266.5c1.1,0,2.3-0.2,3.3-0.8l37.2-18.2l16.1,25.1c1.7,2.7,4.6,4.2,7.7,4.2c0.7,0,1.3-0.1,2-0.2
		c3.8-0.8,6.6-3.8,7.2-7.6l6.5-40.8l30.5,29.9c2.8,2.7,7,3.4,10.6,1.7c3.5-1.7,5.5-5.5,5.1-9.4l-4.7-37.7l28,26.8
		c3,2.9,7.6,3.4,11.2,1.2c3.6-2.2,5.2-6.5,4-10.5l-11.4-38.2l34.6,25.3c3.4,2.5,8.1,1.7,10.6-1.6c2.5-3.4,1.7-8.1-1.6-10.6l-40-29.2
		l16.1-26.6c0.7-1.1,1.7-1.4,2.2-1.5c0.5-0.1,1.6-0.1,2.6,0.7l24.2,21c3.2,2.7,7.9,2.4,10.7-0.7c2.7-3.2,2.4-7.9-0.7-10.7l-24.2-21
		c-4.1-3.6-9.5-5.1-14.9-4.3c-5.4,0.8-10,4-12.8,8.6l-15.9,26.4c-2.3-0.4-4.7,0.2-6.8,1.6c-3.2,2.3-4.7,6.4-3.5,10.2l0.7,2.3
		c-3.5,3.7-13.5,9.6-13.5,9.6l-1.1-1c-2.8-2.7-7-3.3-10.5-1.6c-3.5,1.8-5.5,5.5-5,9.4l0.2,1.3l-21.6,10.6l-0.9-0.9
		c-2.5-2.4-6.1-3.3-9.4-2.2c-3.3,1.1-5.7,3.9-6.2,7.4l-0.6,4l-19.9,9.8c-2.4-3.2-6.8-4-10.2-1.9c-2.9,1.8-4.1,5.3-3.2,8.4
		l-35.9,17.6c-3.8,1.8-5.3,6.4-3.5,10.1C91.3,265,94,266.5,96.8,266.5L96.8,266.5z M236.1,197.7l4.6,15.3l-11.3-10.8
		C231.7,200.9,233.9,199.4,236.1,197.7L236.1,197.7z M203.3,215.2l2.5,20.2l-14.6-14.3L203.3,215.2z M157.7,251.2l-6.7-10.4l8.9-4.4
		L157.7,251.2z"/>
	<path class="st0" d="M502.6,302.4c0-0.3-0.3-29.1-0.3-42.9c0-0.2,0-0.3,0-0.5c-0.9-12.1-8.4-20.4-15-27.7c-2.3-2.5-4.5-5-6.4-7.5
		c6.2-5,7.6-13.8,3.3-20.6l-7-11c-3.6-5.7-10.1-8.3-16.4-7l-8.3-38.4c-1.1-5-5.5-8.5-10.5-8.5h-41.1c-9.2,0-16.7,7.5-16.7,16.7v28.1
		c0,2-0.3,4-0.9,5.9c-2.7,8.2-10.5,13.3-19,12.7c-4-0.3-7.8-2.1-10.9-4.7L333,179.1c-3.2-2.8-8.1-2.4-10.8,0.9
		c-2.6,3.2-2,8,1.1,10.7l20.6,18c6.1,5.3,14,8.2,22,8.2c1.6,0,3.2-0.1,4.8-0.4c9.7-1.4,18.2-7,23.5-15.2c3.4-5.4,5.2-11.6,5.2-17.9
		V155c0-0.8,0.7-1.5,1.5-1.5h37.6l8.2,38.3l-29.1,14.8c-3.9,2-6.9,5.6-8,9.9s-0.5,8.8,1.9,12.6l11.1,17.6c1.5,2.4,3.6,4.5,6.1,5.8
		c2.4,1.2,4.9,1.8,7.4,1.8c3.4,0,6.8-1.1,9.6-3.3l23.1-17.8c2.3,3,4.8,5.7,7.2,8.4c5.6,6.2,10.5,11.6,11.1,18.3c0,9.5,0,19.3,0.1,29
		c-7-4-15.2-6.3-23.8-6.3h-94c-27.2,0-53.7,8.5-75.9,24.3l-6.4,4.6c-7.2,5.1-15.7,7.9-24.5,7.9H58.9c-10.2,0-20.4-1.7-30-5l-11.6-4
		c1.8-3.4,4.6-6.2,8.2-7.9l45.4-22.3c3.5-1.7,5.3-5.7,4.1-9.3c-1.5-4.4-6.5-6.4-10.5-4.4l-45.6,22.4c-4.7,2.3-8.8,6.3-12,10.9
		c-4.4,6.4-6.7,14.1-6.9,21.9c0,0.2,0,0.3,0,0.3c0,31.8,25.9,57.7,57.7,57.7h405c26.6,0,48.9-21.1,49.3-47.8
		C512.2,320.8,508.6,310.7,502.6,302.4L502.6,302.4z M436.5,238.9c-0.1,0-0.2,0.2-0.5,0.1c-0.3,0-0.4-0.2-0.4-0.3l-11.3-17.9
		c0-0.1-0.1-0.2-0.1-0.5c0.1-0.3,0.3-0.3,0.3-0.4l39.1-19.9c0.1,0,0.2-0.1,0.3-0.1c0.2,0,0.4,0.1,0.5,0.3l7,11
		c0.2,0.3,0.1,0.6-0.1,0.8L436.5,238.9z M387.2,297.7v14.4c0,4.2,3.4,7.6,7.6,7.6s7.6-3.4,7.6-7.6v-14.4h23.4v66.8h-23.4v-20.1
		c0-4.2-3.4-7.6-7.6-7.6s-7.6,3.4-7.6,7.6v20.1h-23.4v-66.6c1.9-0.1,3.7-0.2,5.6-0.2H387.2z M348.7,364.5h-23.4v-58
		c7.5-3.1,15.4-5.4,23.4-6.9V364.5z M296,323.8l6.4-4.6c2.5-1.8,5.1-3.5,7.8-5.1v50.4h-23.4v-35.4C290,327.6,293,325.9,296,323.8z
		 M271.6,333.8v30.7h-23.4v-30h14.4C265.7,334.5,268.7,334.2,271.6,333.8z M132.6,334.5H156v30h-23.4V334.5z M117.5,364.5H94.1v-30
		h23.4V364.5z M171.2,334.5h23.4v30h-23.4V334.5z M209.7,334.5h23.4v30h-23.4V334.5z M15.3,325.6l8.7,3c5.4,1.9,10.9,3.3,16.5,4.3
		v28C26.6,354.7,16.6,341.3,15.3,325.6L15.3,325.6z M55.6,364.4v-30c1.1,0,23.4,0.1,23.4,0.1v30C79,364.5,56.3,364.5,55.6,364.4z
		 M440.9,364.5v-66.8c0,0,23.1,0,23.4,0v66.8C464,364.5,440.9,364.5,440.9,364.5z M479.4,360.4v-58.6c10.4,5.7,17.4,16.7,17.4,29.3
		C496.9,343.7,489.8,354.7,479.4,360.4z"/>
</g>
</svg>
